<svg width="19" height="17" viewBox="0 0 19 17" fill="none" xmlns="http://www.w3.org/2000/svg">
<path fill-rule="evenodd" clip-rule="evenodd" d="M8.96492 1.92741L3.0416 5.96169C2.69925 6.19486 2.61074 6.66141 2.84391 7.00376L5.37707 10.7231C5.61024 11.0654 6.07679 11.1539 6.41914 10.9207L12.3425 6.88646C12.6848 6.65329 12.7733 6.18674 12.5401 5.84439L10.007 2.1251C9.77383 1.78274 9.30727 1.69424 8.96492 1.92741ZM2.43177 5.0663C1.59491 5.63627 1.37856 6.77674 1.94853 7.61359L4.48168 11.3329C5.05165 12.1697 6.19212 12.3861 7.02898 11.8161L12.9523 7.78185C13.7892 7.21188 14.0055 6.07141 13.4355 5.23455L10.9024 1.51526C10.3324 0.678403 9.19195 0.462048 8.35509 1.03202L2.43177 5.0663Z" fill="white"/>
<path d="M5.95114 6.98173C5.67583 6.00735 6.24252 4.99428 7.21689 4.71896L14.1135 2.77026C15.0879 2.49494 16.101 3.06164 16.3763 4.03601L17.5999 8.36646C17.8752 9.34083 17.3085 10.3539 16.3342 10.6292L9.43751 12.5779C8.46314 12.8532 7.45006 12.2865 7.17475 11.3122L5.95114 6.98173Z" fill="#003795"/>
<path fill-rule="evenodd" clip-rule="evenodd" d="M14.4081 3.81277L7.51147 5.76148C7.11286 5.87411 6.88103 6.28855 6.99366 6.68715L8.21726 11.0176C8.32989 11.4162 8.74433 11.648 9.14294 11.5354L16.0396 9.58671C16.4382 9.47408 16.67 9.05964 16.5574 8.66103L15.3338 4.33058C15.2212 3.93197 14.8067 3.70014 14.4081 3.81277ZM7.21689 4.71896C6.24252 4.99428 5.67583 6.00735 5.95114 6.98173L7.17475 11.3122C7.45006 12.2865 8.46314 12.8532 9.43751 12.5779L16.3342 10.6292C17.3085 10.3539 17.8752 9.34083 17.5999 8.36646L16.3763 4.03601C16.101 3.06164 15.0879 2.49494 14.1135 2.77026L7.21689 4.71896Z" fill="white"/>
<path fill-rule="evenodd" clip-rule="evenodd" d="M6.95238 7.36292C6.58442 7.46689 6.37042 7.84947 6.47439 8.21743C6.57836 8.58539 6.96093 8.79939 7.32889 8.69542L16.1279 6.20918C16.4959 6.10521 16.7099 5.72263 16.6059 5.35467C16.502 4.98671 16.1194 4.77271 15.7514 4.87668L6.95238 7.36292Z" fill="white"/>
<path d="M0 9.57361C0 8.57103 0.817623 7.75827 1.82621 7.75827H12.0364C13.045 7.75827 13.8626 8.57103 13.8626 9.57361V15.1847C13.8626 16.1873 13.045 17 12.0364 17H1.82621C0.817623 17 0 16.1873 0 15.1847V9.57361Z" fill="#003795"/>
<path fill-rule="evenodd" clip-rule="evenodd" d="M12.0364 8.996H1.82621C1.5053 8.996 1.24514 9.25461 1.24514 9.57361V15.1847C1.24514 15.5037 1.5053 15.7623 1.82621 15.7623H12.0364C12.3573 15.7623 12.6175 15.5037 12.6175 15.1847V9.57361C12.6175 9.25461 12.3573 8.996 12.0364 8.996ZM1.82621 7.75827C0.817623 7.75827 0 8.57103 0 9.57361V15.1847C0 16.1873 0.817623 17 1.82621 17H12.0364C13.045 17 13.8626 16.1873 13.8626 15.1847V9.57361C13.8626 8.57103 13.045 7.75827 12.0364 7.75827H1.82621Z" fill="white"/>
<path d="M8.85645 12.1866C8.85645 11.6549 9.25969 11.2239 9.75712 11.2239H12.5766C13.0741 11.2239 13.4773 11.6549 13.4773 12.1866C13.4773 12.7183 13.0741 13.1493 12.5766 13.1493H9.75712C9.25969 13.1493 8.85645 12.7183 8.85645 12.1866Z" fill="white"/>
</svg>
