<svg width="26" height="26" viewBox="0 0 26 26" fill="none" xmlns="http://www.w3.org/2000/svg">
<path fill-rule="evenodd" clip-rule="evenodd" d="M8.64525 20.1953C9.7317 20.8472 11.2703 21.2693 13.0009 21.2693C14.7316 21.2693 16.2701 20.8472 17.3566 20.1953C18.4546 19.5365 19.0018 18.7076 19.0018 17.9021L19.0017 15.1367C18.696 15.4318 18.3426 15.697 17.9569 15.9284C16.6603 16.7064 14.9067 17.1687 13.0009 17.1687C11.0951 17.1687 9.34154 16.7064 8.04492 15.9284C7.65921 15.697 7.30578 15.4318 7 15.1366L7 17.9021C7 18.7076 7.5472 19.5365 8.64525 20.1953ZM19.0017 12.6517C18.9941 13.4518 18.4469 14.2737 17.3566 14.9279C16.2701 15.5797 14.7316 16.0018 13.0009 16.0018C11.2703 16.0018 9.7317 15.5797 8.64525 14.9279C7.5472 14.269 7 13.4401 7 12.6346L7 9.86915C7.30578 10.1643 7.65921 10.4295 8.04492 10.661C9.34154 11.4389 11.0951 11.9012 13.0009 11.9012C14.9067 11.9012 16.6603 11.4389 17.9569 10.661C18.3426 10.4296 18.696 10.1643 19.0017 9.86923V12.6517ZM19.0018 7.36718C19.0018 6.5617 18.4546 5.7328 17.3566 5.07396C16.2701 4.4221 14.7316 4 13.0009 4C11.2703 4 9.7317 4.4221 8.64525 5.07396C7.5472 5.7328 7 6.5617 7 7.36718C7 8.17266 7.5472 9.00157 8.64525 9.6604C9.7317 10.3123 11.2703 10.7344 13.0009 10.7344C14.7316 10.7344 16.2701 10.3123 17.3566 9.6604C18.4469 9.0062 18.9941 8.18432 19.0017 7.38418L19.0018 7.36718Z" fill="#1653BB"/>
</svg>
