<svg width="197" height="197" viewBox="0 0 197 197" fill="none" xmlns="http://www.w3.org/2000/svg">
<rect width="197" height="197" rx="98.5" fill="#266DE5"/>
<path fill-rule="evenodd" clip-rule="evenodd" d="M94.426 98.6397L38.3607 42.5169L38.3351 130.764L67.2158 159.73L67.3501 95.4464L55.2911 83.3741L55.3227 130.293L50.477 125.445L50.3921 71.5296L85.9668 107.139L94.426 98.6397Z" fill="white" stroke="white" stroke-width="0.00357302" stroke-miterlimit="1" stroke-linecap="round" stroke-linejoin="round"/>
<path fill-rule="evenodd" clip-rule="evenodd" d="M101.479 74.4675L140.673 35.1405V130.531L145.568 125.635L145.559 54.3081L157.6 42.2239L157.584 130.63L128.618 159.73V64.3591L110.013 83.0119L101.479 74.4675Z" fill="white" stroke="white" stroke-width="0.00357302" stroke-miterlimit="1" stroke-linecap="round" stroke-linejoin="round"/>
<path fill-rule="evenodd" clip-rule="evenodd" d="M55.2864 35.2593L55.2311 52.3244L109.999 107.151L123.738 93.3757V76.2868L109.969 89.9983L55.2864 35.2593Z" fill="white" stroke="white" stroke-width="0.00357302" stroke-miterlimit="1" stroke-linecap="round" stroke-linejoin="round"/>
</svg>
