<svg width="115" height="41" viewBox="0 0 115 41" fill="none" xmlns="http://www.w3.org/2000/svg">
<path d="M0 20.4892C0 9.17333 9.17333 0 20.4892 0V0C31.8051 0 40.9784 9.17333 40.9784 20.4892V20.4892C40.9784 31.8051 31.8051 40.9784 20.4892 40.9784V40.9784C9.17333 40.9784 0 31.8051 0 20.4892V20.4892Z" fill="#266DE5"/>
<path fill-rule="evenodd" clip-rule="evenodd" d="M19.6418 20.5183L7.97952 8.84406L7.97418 27.2006L13.9817 33.2257L14.0097 19.854L11.5012 17.3429L11.5078 27.1026L10.4999 26.0941L10.4822 14.879L17.8822 22.2862L19.6418 20.5183Z" fill="white" stroke="white" stroke-width="0.00357302" stroke-miterlimit="1" stroke-linecap="round" stroke-linejoin="round"/>
<path fill-rule="evenodd" clip-rule="evenodd" d="M21.1089 15.4902L29.2617 7.30969V27.152L30.28 26.1337L30.2779 11.2968L32.7827 8.78313L32.7794 27.1726L26.7542 33.2257V13.3875L22.8841 17.2675L21.1089 15.4902Z" fill="white" stroke="white" stroke-width="0.00357302" stroke-miterlimit="1" stroke-linecap="round" stroke-linejoin="round"/>
<path fill-rule="evenodd" clip-rule="evenodd" d="M11.5003 7.33441L11.4888 10.8842L22.8812 22.2887L25.7391 19.4233V15.8686L22.875 18.7208L11.5003 7.33441Z" fill="white" stroke="white" stroke-width="0.00357302" stroke-miterlimit="1" stroke-linecap="round" stroke-linejoin="round"/>
<path d="M67.823 27L67.804 19.02L63.89 25.594H62.503L58.608 19.191V27H55.72V13.7H58.266L63.244 21.965L68.146 13.7H70.673L70.711 27H67.823Z" fill="white"/>
<path d="M83.6705 21.927C83.6705 21.965 83.6515 22.231 83.6135 22.725H75.8805C76.0198 23.3583 76.3492 23.8587 76.8685 24.226C77.3878 24.5933 78.0338 24.777 78.8065 24.777C79.3385 24.777 79.8072 24.701 80.2125 24.549C80.6305 24.3843 81.0168 24.131 81.3715 23.789L82.9485 25.499C81.9858 26.601 80.5798 27.152 78.7305 27.152C77.5778 27.152 76.5582 26.9303 75.6715 26.487C74.7848 26.031 74.1008 25.404 73.6195 24.606C73.1382 23.808 72.8975 22.9023 72.8975 21.889C72.8975 20.8883 73.1318 19.989 73.6005 19.191C74.0818 18.3803 74.7342 17.7533 75.5575 17.31C76.3935 16.854 77.3245 16.626 78.3505 16.626C79.3512 16.626 80.2568 16.8413 81.0675 17.272C81.8782 17.7027 82.5115 18.3233 82.9675 19.134C83.4362 19.932 83.6705 20.863 83.6705 21.927ZM78.3695 18.868C77.6982 18.868 77.1345 19.058 76.6785 19.438C76.2225 19.818 75.9438 20.3373 75.8425 20.996H80.8775C80.7762 20.35 80.4975 19.837 80.0415 19.457C79.5855 19.0643 79.0282 18.868 78.3695 18.868Z" fill="white"/>
<path d="M88.4748 18.127C88.8295 17.633 89.3045 17.2593 89.8998 17.006C90.5078 16.7527 91.2045 16.626 91.9898 16.626V19.362C91.6605 19.3367 91.4388 19.324 91.3248 19.324C90.4762 19.324 89.8112 19.5647 89.3298 20.046C88.8485 20.5147 88.6078 21.224 88.6078 22.174V27H85.6438V16.778H88.4748V18.127Z" fill="white"/>
<path d="M98.5235 27.152C97.4468 27.152 96.4778 26.9303 95.6165 26.487C94.7678 26.031 94.1028 25.404 93.6215 24.606C93.1401 23.808 92.8995 22.9023 92.8995 21.889C92.8995 20.8757 93.1401 19.97 93.6215 19.172C94.1028 18.374 94.7678 17.7533 95.6165 17.31C96.4778 16.854 97.4468 16.626 98.5235 16.626C99.6001 16.626 100.563 16.854 101.411 17.31C102.26 17.7533 102.925 18.374 103.406 19.172C103.888 19.97 104.128 20.8757 104.128 21.889C104.128 22.9023 103.888 23.808 103.406 24.606C102.925 25.404 102.26 26.031 101.411 26.487C100.563 26.9303 99.6001 27.152 98.5235 27.152ZM98.5235 24.72C99.2835 24.72 99.9041 24.4667 100.385 23.96C100.879 23.4407 101.126 22.7503 101.126 21.889C101.126 21.0277 100.879 20.3437 100.385 19.837C99.9041 19.3177 99.2835 19.058 98.5235 19.058C97.7635 19.058 97.1365 19.3177 96.6425 19.837C96.1485 20.3437 95.9015 21.0277 95.9015 21.889C95.9015 22.7503 96.1485 23.4407 96.6425 23.96C97.1365 24.4667 97.7635 24.72 98.5235 24.72Z" fill="white"/>
<path d="M109.549 27.152C108.7 27.152 107.87 27.0507 107.06 26.848C106.249 26.6327 105.603 26.3667 105.122 26.05L106.11 23.922C106.566 24.2133 107.117 24.454 107.763 24.644C108.409 24.8213 109.042 24.91 109.663 24.91C110.917 24.91 111.544 24.5997 111.544 23.979C111.544 23.6877 111.373 23.4787 111.031 23.352C110.689 23.2253 110.163 23.1177 109.454 23.029C108.618 22.9023 107.927 22.7567 107.383 22.592C106.838 22.4273 106.363 22.136 105.958 21.718C105.565 21.3 105.369 20.7047 105.369 19.932C105.369 19.286 105.552 18.716 105.92 18.222C106.3 17.7153 106.844 17.3227 107.554 17.044C108.276 16.7653 109.124 16.626 110.1 16.626C110.822 16.626 111.537 16.7083 112.247 16.873C112.969 17.025 113.564 17.2403 114.033 17.519L113.045 19.628C112.145 19.1213 111.164 18.868 110.1 18.868C109.466 18.868 108.991 18.9567 108.675 19.134C108.358 19.3113 108.2 19.5393 108.2 19.818C108.2 20.1347 108.371 20.3563 108.713 20.483C109.055 20.6097 109.599 20.73 110.347 20.844C111.183 20.9833 111.867 21.1353 112.399 21.3C112.931 21.452 113.393 21.737 113.786 22.155C114.178 22.573 114.375 23.1557 114.375 23.903C114.375 24.5363 114.185 25.1 113.805 25.594C113.425 26.088 112.867 26.4743 112.133 26.753C111.411 27.019 110.549 27.152 109.549 27.152Z" fill="white"/>
</svg>
