<svg width="26" height="26" viewBox="0 0 26 26" fill="none" xmlns="http://www.w3.org/2000/svg">
<path d="M16 8C16 9.65685 14.6569 11 13 11C11.3431 11 10 9.65685 10 8C10 6.34315 11.3431 5 13 5C14.6569 5 16 6.34315 16 8Z" fill="white"/>
<path d="M16 8C16 9.65685 14.6569 11 13 11C11.3431 11 10 9.65685 10 8C10 6.34315 11.3431 5 13 5C14.6569 5 16 6.34315 16 8Z" fill="white"/>
<path d="M10 17.4286C10 19.0854 8.65685 20.4286 7 20.4286C5.34315 20.4286 4 19.0854 4 17.4286C4 15.7717 5.34315 14.4286 7 14.4286C8.65685 14.4286 10 15.7717 10 17.4286Z" fill="white"/>
<path d="M22 17.4286C22 19.0854 20.6569 20.4286 19 20.4286C17.3431 20.4286 16 19.0854 16 17.4286C16 15.7717 17.3431 14.4286 19 14.4286C20.6569 14.4286 22 15.7717 22 17.4286Z" fill="white"/>
<path fill-rule="evenodd" clip-rule="evenodd" d="M12.9999 6.4035L20.5613 18.2858H5.43848L12.9999 6.4035ZM8.56134 16.5715H17.4385L12.9999 9.59658L8.56134 16.5715Z" fill="white"/>
</svg>
