<svg width="26" height="26" viewBox="0 0 26 26" fill="none" xmlns="http://www.w3.org/2000/svg">
<path fill-rule="evenodd" clip-rule="evenodd" d="M18.7582 17.7582V6.93408H7.93408V17.7582L18.7582 17.7582ZM15.4277 12.3461C15.4277 11.1965 14.4957 10.2646 13.3461 10.2646C12.1965 10.2646 11.2645 11.1965 11.2645 12.3461C11.2645 13.4957 12.1965 14.4277 13.3461 14.4277C14.4957 14.4277 15.4277 13.4957 15.4277 12.3461Z" fill="white"/>
<path fill-rule="evenodd" clip-rule="evenodd" d="M13.3462 20L21 12.3462L13.3462 4.69238L5.69238 12.3462L13.3462 20ZM14.8182 13.8181C15.6311 13.0052 15.6311 11.6872 14.8182 10.8743C14.0053 10.0614 12.6873 10.0614 11.8744 10.8743C11.0615 11.6872 11.0615 13.0052 11.8744 13.8181C12.6873 14.631 14.0053 14.631 14.8182 13.8181Z" fill="white"/>
</svg>
