<svg width="58" height="58" viewBox="0 0 58 58" fill="none" xmlns="http://www.w3.org/2000/svg">
<path fill-rule="evenodd" clip-rule="evenodd" d="M25.1105 7.43234C29.475 6.56417 33.999 7.00975 38.1104 8.71272C42.2217 10.4157 45.7357 13.2996 48.2081 16.9997C50.6804 20.6998 52 25.0499 52 29.5H46.2893C46.2893 26.1794 45.3047 22.9333 43.4598 20.1723C41.615 17.4114 38.9929 15.2594 35.925 13.9887C32.8572 12.7179 29.4814 12.3855 26.2246 13.0333C22.9678 13.6811 19.9762 15.2801 17.6282 17.6282C15.2801 19.9762 13.6811 22.9678 13.0333 26.2246C12.3855 29.4814 12.7179 32.8572 13.9887 35.925C15.2594 38.9929 17.4114 41.615 20.1723 43.4598C22.9333 45.3047 26.1794 46.2893 29.5 46.2893V52C25.0499 52 20.6998 50.6804 16.9997 48.2081C13.2996 45.7357 10.4157 42.2217 8.71272 38.1104C7.00975 33.999 6.56417 29.475 7.43234 25.1105C8.30051 20.7459 10.4434 16.7368 13.5901 13.5901C16.7368 10.4434 20.7459 8.30051 25.1105 7.43234Z" fill="white"/>
</svg>
